<svg width="68" height="48" viewBox="0 0 68 48" fill="none" xmlns="http://www.w3.org/2000/svg">
<g clip-path="url(#clip0_3178_9663)">
<path d="M32.231 30.7116C32.231 30.949 32.3261 31.503 33.2063 31.503H36.1933C37.0711 31.503 37.1686 30.952 37.1686 30.7116V21.3965H32.231V30.7116Z" fill="black"/>
<path d="M45.2162 15.69C45.1518 15.6276 45.0753 15.579 44.9915 15.5471C44.9076 15.5152 44.8182 15.5006 44.7285 15.5043H24.6792C24.5896 15.5004 24.5001 15.515 24.4162 15.5469C24.3324 15.5788 24.2559 15.6275 24.1915 15.69C23.9904 15.8927 23.9922 16.1636 23.9947 16.4023V19.1152C23.9947 19.3539 23.9898 19.6248 24.1922 19.8282C24.2567 19.8901 24.3333 19.9383 24.4171 19.9697C24.501 20.0011 24.5904 20.0151 24.6798 20.0108H44.7267C44.8162 20.015 44.9055 20.001 44.9894 19.9696C45.0732 19.9382 45.1498 19.8901 45.2144 19.8282C45.4143 19.626 45.4113 19.36 45.4082 19.1256V16.3919C45.4125 16.1575 45.4155 15.8921 45.2162 15.69Z" fill="black"/>
<path d="M9.75364 17.9548L1.21454 29.7039C1.19747 29.7271 1.17613 29.7545 1.15358 29.7849C0.938396 30.0613 0.613486 30.4771 0.810992 30.8735C0.985334 31.2157 1.42058 31.2534 1.76622 31.2534H1.91861H5.69318C5.84793 31.2549 6.00076 31.2191 6.13871 31.149C6.27667 31.079 6.39567 30.9767 6.48564 30.851L14.0555 20.4266C14.1464 20.2953 14.2686 20.1886 14.4111 20.1162C14.5536 20.0438 14.7119 20.008 14.8717 20.012H17.8368V26.4954H22.7744V15.5042H14.5651C13.6254 15.499 12.6981 15.7188 11.861 16.1451C11.0239 16.5715 10.3012 17.192 9.75364 17.9548Z" fill="black"/>
<path d="M17.8367 30.5142C17.8367 31.2545 18.5767 31.2545 18.8199 31.2545H21.7892C22.0331 31.2545 22.7762 31.2545 22.7762 30.5142V27.8506H17.8385L17.8367 30.5142Z" fill="black"/>
<path d="M51.7756 15.5H46.6325V30.5441C46.6284 30.6359 46.6431 30.7275 46.6757 30.8133C46.7083 30.8992 46.7581 30.9775 46.8221 31.0434C47.0312 31.2522 47.3152 31.2516 47.5646 31.251H50.6735C50.9136 31.251 51.1794 31.2412 51.3782 31.0434C51.4419 30.9773 51.4916 30.899 51.5242 30.8132C51.5568 30.7274 51.5716 30.6358 51.5677 30.5441V20.5332L51.5714 20.5374L59.2796 29.7137C60.1239 30.7195 61.265 31.251 62.5799 31.251H66.8781L55.2661 16.8735C54.3151 15.7387 52.843 15.5 51.7756 15.5Z" fill="black"/>
<path d="M67.3048 15.5651C67.1341 15.5 66.9512 15.5 66.7714 15.5H63.7356C63.5528 15.5 63.3699 15.5 63.2022 15.5651C62.9377 15.668 62.7859 15.903 62.7859 16.2093V24.0236L67.7235 30.1569V16.2099C67.7254 15.903 67.5718 15.668 67.3048 15.5651Z" fill="black"/>
</g>
<defs>
<clipPath id="clip0_3178_9663">
<rect width="68" height="17" fill="white" transform="translate(0 15.5)"/>
</clipPath>
</defs>
</svg>
